REM DIRINDEX 1\2,1\4,1\3\5,1\3\6,1\3\7
REM DIRNAME folder01,folder02,folder03,folder04,folder05,folder06,folder07
TITLE ""
FILE "CD2Track13.mp3" MP3
  TRACK 01 AUDIO
    TITLE "0:"
    INDEX 01 00:00:00
  TRACK 02 AUDIO
    TITLE "5:cjc081_1369"
    INDEX 01 00:00:27
  TRACK 03 AUDIO
    TITLE "0:"
    INDEX 01 00:01:38
  TRACK 04 AUDIO
    TITLE "6:cjc081_1370"
    INDEX 01 00:02:10
  TRACK 05 AUDIO
    TITLE "0:"
    INDEX 01 00:03:47
  TRACK 06 AUDIO
    TITLE "5:cjc081_1371"
    INDEX 01 00:04:13
  TRACK 07 AUDIO
    TITLE "0:"
    INDEX 01 00:05:34
  TRACK 08 AUDIO
    TITLE "6:cjc081_1372"
    INDEX 01 00:06:08
  TRACK 09 AUDIO
    TITLE "0:"
    INDEX 01 00:07:47
  TRACK 10 AUDIO
    TITLE "5:cjc081_1373"
    INDEX 01 00:08:17
  TRACK 11 AUDIO
    TITLE "0:"
    INDEX 01 00:09:40
  TRACK 12 AUDIO
    TITLE "6:cjc081_1374"
    INDEX 01 00:10:14
  TRACK 13 AUDIO
    TITLE "0:"
    INDEX 01 00:11:17
  TRACK 14 AUDIO
    TITLE "5:cjc081_1375"
    INDEX 01 00:11:64
  TRACK 15 AUDIO
    TITLE "0:"
    INDEX 01 00:13:14
  TRACK 16 AUDIO
    TITLE "6:cjc081_1376"
    INDEX 01 00:13:61
  TRACK 17 AUDIO
    TITLE "0:"
    INDEX 01 00:15:38
  TRACK 18 AUDIO
    TITLE "5:cjc081_1377"
    INDEX 01 00:16:06
  TRACK 19 AUDIO
    TITLE "0:"
    INDEX 01 00:17:31
  TRACK 20 AUDIO
    TITLE "6:cjc081_1378"
    INDEX 01 00:18:01
  TRACK 21 AUDIO
    TITLE "0:"
    INDEX 01 00:19:22
  TRACK 22 AUDIO
    TITLE "5:cjc081_1379"
    INDEX 01 00:19:65
  TRACK 23 AUDIO
    TITLE "0:"
    INDEX 01 00:21:04
  TRACK 24 AUDIO
    TITLE "6:cjc081_1380"
    INDEX 01 00:21:49
  TRACK 25 AUDIO
    TITLE "0:"
    INDEX 01 00:24:35
  TRACK 26 AUDIO
    TITLE "5:cjc081_1381"
    INDEX 01 00:25:03
  TRACK 27 AUDIO
    TITLE "0:"
    INDEX 01 00:26:11
  TRACK 28 AUDIO
    TITLE "6:cjc081_1382"
    INDEX 01 00:26:60
  TRACK 29 AUDIO
    TITLE "0:"
    INDEX 01 00:27:55
  TRACK 30 AUDIO
    TITLE "5:cjc081_1383"
    INDEX 01 00:28:23
  TRACK 31 AUDIO
    TITLE "0:"
    INDEX 01 00:30:22
  TRACK 32 AUDIO
    TITLE "6:cjc081_1384"
    INDEX 01 00:30:67
  TRACK 33 AUDIO
    TITLE "0:"
    INDEX 01 00:32:52
  TRACK 34 AUDIO
    TITLE "5:cjc081_1385"
    INDEX 01 00:33:22
  TRACK 35 AUDIO
    TITLE "0:"
    INDEX 01 00:34:51
  TRACK 36 AUDIO
    TITLE "6:cjc081_1386"
    INDEX 01 00:35:23
  TRACK 37 AUDIO
    TITLE "0:"
    INDEX 01 00:37:26
  TRACK 38 AUDIO
    TITLE "5:cjc081_1387"
    INDEX 01 00:37:69
  TRACK 39 AUDIO
    TITLE "0:"
    INDEX 01 00:39:11
  TRACK 40 AUDIO
    TITLE "6:cjc081_1388"
    INDEX 01 00:39:56
  TRACK 41 AUDIO
    TITLE "0:"
    INDEX 01 00:40:62
  TRACK 42 AUDIO
    TITLE "5:cjc081_1389"
    INDEX 01 00:41:32
  TRACK 43 AUDIO
    TITLE "0:"
    INDEX 01 00:42:53
  TRACK 44 AUDIO
    TITLE "6:cjc081_1390"
    INDEX 01 00:43:27
  TRACK 45 AUDIO
    TITLE "0:"
    INDEX 01 00:44:44
  TRACK 46 AUDIO
    TITLE "5:cjc081_1391"
    INDEX 01 00:45:20
  TRACK 47 AUDIO
    TITLE "0:"
    INDEX 01 00:46:49
  TRACK 48 AUDIO
    TITLE "6:cjc081_1392"
    INDEX 01 00:47:21
  TRACK 49 AUDIO
    TITLE "0:"
    INDEX 01 00:48:49
  TRACK 50 AUDIO
    TITLE "5:cjc081_1393"
    INDEX 01 00:49:16
  TRACK 51 AUDIO
    TITLE "0:"
    INDEX 01 00:50:48
  TRACK 52 AUDIO
    TITLE "6:cjc081_1394"
    INDEX 01 00:51:20
  TRACK 53 AUDIO
    TITLE "0:"
    INDEX 01 00:53:02
  TRACK 54 AUDIO
    TITLE "5:cjc081_1395"
    INDEX 01 00:53:47
  TRACK 55 AUDIO
    TITLE "0:"
    INDEX 01 00:55:32
  TRACK 56 AUDIO
    TITLE "6:cjc081_1396"
    INDEX 01 00:56:02
  TRACK 57 AUDIO
    TITLE "0:"
    INDEX 01 00:57:62
  TRACK 58 AUDIO
    TITLE "7:cjc081_1397"
    INDEX 01 00:59:26
  TRACK 59 AUDIO
    TITLE "0:"
    INDEX 01 01:10:14
